<svg width="258" height="111" viewBox="0 0 258 111" fill="none" xmlns="http://www.w3.org/2000/svg">
<path d="M29.63 87.92V95.58C29.63 98.67 27.44 101.09 23.06 102.82C20.69 103.73 18.02 104.19 15.04 104.19C12.06 104.19 9.39001 103.73 7.02001 102.82C2.64001 101.09 0.450012 98.67 0.450012 95.58V72.73C0.450012 69.64 2.64001 67.22 7.02001 65.49C9.39001 64.58 12.06 64.12 15.04 64.12C18.02 64.12 20.69 64.58 23.06 65.49C27.44 67.22 29.63 69.64 29.63 72.73V77.23L22.95 80.39H22.6V73.96C22.6 72.79 21.87 71.91 20.4 71.32C18.94 70.73 17.15 70.44 15.04 70.44C12.93 70.44 11.14 70.73 9.68002 71.32C8.22002 71.91 7.48002 72.78 7.48002 73.96V94.35C7.48002 95.52 8.21002 96.4 9.68002 96.99C11.14 97.58 12.93 97.87 15.04 97.87C17.15 97.87 18.94 97.58 20.4 96.99C21.86 96.4 22.6 95.53 22.6 94.35V91.08L29.28 87.92H29.63Z" fill="#E1E1E1"/>
<path d="M39.82 95.58V72.73C39.82 69.64 42.01 67.22 46.39 65.49C48.76 64.58 51.43 64.12 54.41 64.12C57.39 64.12 60.06 64.58 62.43 65.49C66.81 67.22 69 69.64 69 72.73V95.58C69 98.67 66.81 101.09 62.43 102.82C60.06 103.73 57.39 104.19 54.41 104.19C51.43 104.19 48.76 103.73 46.39 102.82C42.01 101.09 39.82 98.67 39.82 95.58ZM46.85 94.35C46.85 95.52 47.58 96.4 49.05 96.99C50.52 97.58 52.3 97.87 54.41 97.87C56.52 97.87 58.31 97.58 59.77 96.99C61.23 96.4 61.97 95.53 61.97 94.35V73.96C61.97 72.79 61.24 71.91 59.77 71.32C58.3 70.73 56.52 70.44 54.41 70.44C52.3 70.44 50.51 70.73 49.05 71.32C47.59 71.91 46.85 72.78 46.85 73.96V94.35Z" fill="#E1E1E1"/>
<path d="M79.18 104.9V72.73C79.18 69.59 81.37 67.18 85.75 65.49C88.12 64.58 90.79 64.12 93.77 64.12C96.75 64.12 99.42 64.58 101.79 65.49C106.17 67.18 108.36 69.59 108.36 72.73V101.73L101.68 101.89H101.33V73.95C101.33 72.78 100.6 71.9 99.13 71.31C97.67 70.72 95.88 70.43 93.77 70.43C91.66 70.43 89.87 70.72 88.41 71.31C86.95 71.9 86.21 72.77 86.21 73.95V101.72L79.53 104.88H79.18V104.9Z" fill="#E1E1E1"/>
<path d="M118.55 104.9V72.73C118.55 69.59 120.74 67.18 125.12 65.49C127.49 64.58 130.16 64.12 133.14 64.12C136.12 64.12 138.79 64.58 141.16 65.49C145.54 67.18 147.73 69.59 147.73 72.73V101.73L141.05 104.89H140.7V73.95C140.7 72.78 139.97 71.9 138.5 71.31C137.04 70.72 135.25 70.43 133.14 70.43C131.03 70.43 129.24 70.72 127.78 71.31C126.32 71.9 125.58 72.77 125.58 73.95V101.72L118.9 104.88H118.55V104.9Z" fill="#E1E1E1"/>
<path d="M187.1 87.92V95.58C187.1 98.67 184.91 101.09 180.53 102.82C178.16 103.73 175.49 104.19 172.51 104.19C169.53 104.19 166.86 103.73 164.49 102.82C160.11 101.09 157.92 98.67 157.92 95.58V72.73C157.92 69.64 160.11 67.22 164.49 65.49C166.86 64.58 169.53 64.12 172.51 64.12C175.49 64.12 178.16 64.58 180.53 65.49C184.91 67.22 187.1 69.64 187.1 72.73V77.23L164.95 94.26C164.95 95.46 165.68 96.36 167.15 96.96C168.61 97.56 170.4 97.86 172.51 97.86C174.62 97.86 176.41 97.57 177.87 96.98C179.33 96.39 180.07 95.52 180.07 94.34V91.07L186.75 87.91H187.1V87.92ZM164.95 86.94L180.07 75.34V74.43C180.07 73.1 179.34 72.11 177.87 71.45C176.4 70.79 174.62 70.46 172.51 70.46C170.4 70.46 168.61 70.75 167.15 71.34C165.69 71.93 164.95 72.8 164.95 73.98V86.95V86.94Z" fill="#E1E1E1"/>
<path d="M226.46 87.92V95.58C226.46 98.67 224.27 101.09 219.89 102.82C217.52 103.73 214.85 104.19 211.87 104.19C208.89 104.19 206.22 103.73 203.85 102.82C199.47 101.09 197.28 98.67 197.28 95.58V72.73C197.28 69.64 199.47 67.22 203.85 65.49C206.22 64.58 208.89 64.12 211.87 64.12C214.85 64.12 217.52 64.58 219.89 65.49C224.27 67.22 226.46 69.64 226.46 72.73V77.23L219.78 80.39H219.43V73.96C219.43 72.79 218.7 71.91 217.23 71.32C215.76 70.73 213.98 70.44 211.87 70.44C209.76 70.44 207.97 70.73 206.51 71.32C205.05 71.91 204.31 72.78 204.31 73.96V94.35C204.31 95.52 205.04 96.4 206.51 96.99C207.98 97.58 209.76 97.87 211.87 97.87C213.98 97.87 215.77 97.58 217.23 96.99C218.69 96.4 219.43 95.53 219.43 94.35V91.08L226.11 87.92H226.46Z" fill="#E1E1E1"/>
<path d="M241.29 104.9V71.22H232.25V70.87L235.1 64.82H241.29V52.16L247.97 49H248.32V64.82H257.36V65.17L254.51 71.22H248.32V101.74L241.64 104.9H241.29Z" fill="#E1E1E1"/>
<path d="M29.62 38.92V46.58C29.62 49.67 27.43 52.09 23.05 53.82C20.68 54.73 18.01 55.19 15.03 55.19C12.05 55.19 9.38 54.73 7.01 53.82C2.63 52.09 0.440002 49.67 0.440002 46.58V23.73C0.440002 20.64 2.63 18.22 7.01 16.49C9.38 15.58 12.05 15.12 15.03 15.12C18.01 15.12 20.68 15.58 23.05 16.49C27.43 18.22 29.62 20.64 29.62 23.73V28.23L22.94 31.39H22.59V24.96C22.59 23.79 21.86 22.91 20.39 22.32C18.93 21.73 17.14 21.44 15.03 21.44C12.92 21.44 11.13 21.73 9.67 22.32C8.21 22.91 7.47 23.78 7.47 24.96V45.35C7.47 46.52 8.2 47.4 9.67 47.99C11.13 48.58 12.92 48.87 15.03 48.87C17.14 48.87 18.93 48.58 20.39 47.99C21.85 47.4 22.59 46.53 22.59 45.35V42.08L29.27 38.92H29.62Z" fill="#888888"/>
<path d="M39.81 46.58V23.73C39.81 20.64 42 18.22 46.38 16.49C48.75 15.58 51.42 15.12 54.4 15.12C57.38 15.12 60.05 15.58 62.42 16.49C66.8 18.22 68.99 20.64 68.99 23.73V46.58C68.99 49.67 66.8 52.09 62.42 53.82C60.05 54.73 57.38 55.19 54.4 55.19C51.42 55.19 48.75 54.73 46.38 53.82C42 52.09 39.81 49.67 39.81 46.58ZM46.84 45.35C46.84 46.52 47.57 47.4 49.04 47.99C50.51 48.58 52.29 48.87 54.4 48.87C56.51 48.87 58.3 48.58 59.76 47.99C61.22 47.4 61.96 46.53 61.96 45.35V24.96C61.96 23.79 61.23 22.91 59.76 22.32C58.29 21.73 56.51 21.44 54.4 21.44C52.29 21.44 50.5 21.73 49.04 22.32C47.58 22.91 46.84 23.78 46.84 24.96V45.35Z" fill="#888888"/>
<path d="M79.17 46.58V23.73C79.17 20.59 81.36 18.18 85.74 16.49C88.11 15.58 90.78 15.12 93.76 15.12C96.55 15.12 99.07 15.52 101.32 16.32V3.16L108 0H108.35V46.58C108.35 49.72 106.16 52.13 101.78 53.82C99.41 54.73 96.74 55.19 93.76 55.19C90.78 55.19 88.11 54.73 85.74 53.82C81.36 52.09 79.17 49.67 79.17 46.58ZM86.2 45.35C86.2 46.52 86.93 47.4 88.4 47.99C89.86 48.58 91.65 48.87 93.76 48.87C95.87 48.87 97.66 48.58 99.12 47.99C100.58 47.4 101.32 46.53 101.32 45.35V24.96C101.32 23.79 100.59 22.91 99.12 22.32C97.66 21.73 95.87 21.44 93.76 21.44C91.65 21.44 89.86 21.73 88.4 22.32C86.94 22.91 86.2 23.78 86.2 24.96V45.35Z" fill="#888888"/>
<path d="M149.48 38.92V46.58C149.48 49.67 147.29 52.09 142.91 53.82C140.54 54.73 137.87 55.19 134.89 55.19C131.91 55.19 129.24 54.73 126.87 53.82C122.49 52.09 120.3 49.67 120.3 46.58V23.73C120.3 20.64 122.49 18.22 126.87 16.49C129.24 15.58 131.91 15.12 134.89 15.12C137.87 15.12 140.54 15.58 142.91 16.49C147.29 18.22 149.48 20.64 149.48 23.73V28.23L127.33 45.26C127.33 46.46 128.06 47.36 129.53 47.96C130.99 48.56 132.78 48.86 134.89 48.86C137 48.86 138.79 48.57 140.25 47.98C141.71 47.39 142.45 46.52 142.45 45.34V42.07L149.13 38.91H149.48V38.92ZM127.33 37.94L142.45 26.34V25.43C142.45 24.1 141.72 23.11 140.25 22.45C138.79 21.79 137 21.46 134.89 21.46C132.78 21.46 130.99 21.75 129.53 22.34C128.07 22.93 127.33 23.8 127.33 24.98V37.95V37.94Z" fill="#888888"/>
<path d="M118.57 100.13V100.94C118.57 105.56 108.3 105.11 108.3 100.94V100.13H101.29V102.17C101.29 105.3 103.48 107.71 107.85 109.39C111.46 110.78 115.39 110.79 119.03 109.39C123.4 107.71 125.58 105.3 125.58 102.17V100.13H118.57Z" fill="#81FE88"/>
</svg>
