<svg width="76" height="88" viewBox="0 0 76 88" fill="none" xmlns="http://www.w3.org/2000/svg">
<path d="M41.62 43.3599L33.68 39.7599L33.71 36.9299C33.71 35.0199 32.03 33.3899 28.67 32.0599C26.34 31.1399 23.79 30.6899 21.01 30.6899C18.23 30.6899 15.68 31.1499 13.35 32.0599C9.99 33.4199 8.31 35.0399 8.31 36.9299V73.9699C8.31 75.8799 9.99 77.5099 13.35 78.8399C15.68 79.7599 18.23 80.2099 21.01 80.2099C23.79 80.2099 26.34 79.7499 28.67 78.8399C32.03 77.4799 33.71 75.8599 33.71 73.9699V63.9799H34.13L42.04 67.7299V73.9699C42.04 79.0499 38.89 82.8899 32.59 85.4999C29.07 86.9699 25.21 87.7099 21.02 87.7099C16.83 87.7099 12.97 86.9699 9.45 85.4999C3.15 82.8799 0 79.0399 0 73.9599V36.9199C0 31.8399 3.15 27.9999 9.45 25.3899C12.97 23.9199 16.83 23.1799 21.02 23.1799C25.21 23.1799 29.07 23.9199 32.59 25.3899C38.89 27.9999 42.04 31.8399 42.04 36.9199V43.3599H41.62Z" fill="#81FE88"/>
<path d="M42.03 67.7199C42.03 67.7199 34.86 64.6199 33.68 61.0599L33.71 65.3799L42.03 67.7199Z" fill="#81FE88"/>
<path d="M33.56 45.0299L41.5 48.6299L41.47 51.4599C41.47 53.3699 43.15 54.9999 46.51 56.3299C48.84 57.2499 51.39 57.6999 54.17 57.6999C56.94 57.6999 59.5 57.2399 61.83 56.3299C65.19 54.9699 66.87 53.3499 66.87 51.4599V14.4299C66.87 12.5199 65.19 10.8899 61.83 9.55994C59.5 8.63994 56.95 8.18994 54.17 8.18994C51.4 8.18994 48.84 8.64994 46.51 9.55994C43.15 10.9199 41.47 12.5399 41.47 14.4299V24.4199H41.05L33.14 20.6699V14.4299C33.14 9.34994 36.29 5.50994 42.59 2.89994C46.11 1.42994 49.97 0.689941 54.16 0.689941C58.35 0.689941 62.21 1.42994 65.73 2.89994C72.03 5.50994 75.18 9.34994 75.18 14.4299V51.4699C75.18 56.5499 72.03 60.3899 65.73 62.9999C62.21 64.4699 58.35 65.2099 54.16 65.2099C49.97 65.2099 46.11 64.4699 42.59 62.9999C36.29 60.3899 33.14 56.5499 33.14 51.4699V45.0299H33.56Z" fill="#81FE88"/>
<path d="M33.15 20.6699C33.15 20.6699 40.32 23.7699 41.5 27.3299L41.47 23.0099L33.15 20.6699Z" fill="#81FE88"/>
</svg>
