<svg width="26" height="27" viewBox="0 0 26 27" fill="none" xmlns="http://www.w3.org/2000/svg">
<mask id="path-1-outside-1_201_4970" maskUnits="userSpaceOnUse" x="0" y="0.5" width="26" height="26" fill="black">
<rect fill="white" y="0.5" width="26" height="26"/>
<path d="M5.4375 14.4375C6.60417 15.6042 8.02083 16.1875 9.6875 16.1875C11.3542 16.1875 12.7708 15.6042 13.9375 14.4375C15.1042 13.2708 15.6875 11.8542 15.6875 10.1875C15.6875 8.52083 15.1042 7.10417 13.9375 5.9375C12.7708 4.77083 11.3542 4.1875 9.6875 4.1875C8.02083 4.1875 6.60417 4.77083 5.4375 5.9375C4.27083 7.10417 3.6875 8.52083 3.6875 10.1875C3.6875 11.8542 4.27083 13.2708 5.4375 14.4375ZM17.6875 16.1875L24.3125 22.8125L22.3125 24.8125L15.6875 18.1875V17.125L15.3125 16.75C13.7292 18.125 11.8542 18.8125 9.6875 18.8125C7.27083 18.8125 5.20833 17.9792 3.5 16.3125C1.83333 14.6458 1 12.6042 1 10.1875C1 7.77083 1.83333 5.72917 3.5 4.0625C5.20833 2.35417 7.27083 1.5 9.6875 1.5C12.1042 1.5 14.1458 2.35417 15.8125 4.0625C17.4792 5.72917 18.3125 7.77083 18.3125 10.1875C18.3125 11.0625 18.1042 12.0625 17.6875 13.1875C17.2708 14.2708 16.7917 15.1458 16.25 15.8125L16.625 16.1875H17.6875Z"/>
</mask>
<path d="M5.4375 14.4375C6.60417 15.6042 8.02083 16.1875 9.6875 16.1875C11.3542 16.1875 12.7708 15.6042 13.9375 14.4375C15.1042 13.2708 15.6875 11.8542 15.6875 10.1875C15.6875 8.52083 15.1042 7.10417 13.9375 5.9375C12.7708 4.77083 11.3542 4.1875 9.6875 4.1875C8.02083 4.1875 6.60417 4.77083 5.4375 5.9375C4.27083 7.10417 3.6875 8.52083 3.6875 10.1875C3.6875 11.8542 4.27083 13.2708 5.4375 14.4375ZM17.6875 16.1875L24.3125 22.8125L22.3125 24.8125L15.6875 18.1875V17.125L15.3125 16.75C13.7292 18.125 11.8542 18.8125 9.6875 18.8125C7.27083 18.8125 5.20833 17.9792 3.5 16.3125C1.83333 14.6458 1 12.6042 1 10.1875C1 7.77083 1.83333 5.72917 3.5 4.0625C5.20833 2.35417 7.27083 1.5 9.6875 1.5C12.1042 1.5 14.1458 2.35417 15.8125 4.0625C17.4792 5.72917 18.3125 7.77083 18.3125 10.1875C18.3125 11.0625 18.1042 12.0625 17.6875 13.1875C17.2708 14.2708 16.7917 15.1458 16.25 15.8125L16.625 16.1875H17.6875Z" fill="#BCBCBC"/>
<path d="M5.4375 14.4375L4.73039 15.1446L5.4375 14.4375ZM13.9375 5.9375L13.2304 6.64461L13.9375 5.9375ZM17.6875 16.1875L18.3946 15.4804L18.1017 15.1875H17.6875V16.1875ZM24.3125 22.8125L25.0196 23.5196L25.7267 22.8125L25.0196 22.1054L24.3125 22.8125ZM22.3125 24.8125L21.6054 25.5196L22.3125 26.2267L23.0196 25.5196L22.3125 24.8125ZM15.6875 18.1875H14.6875V18.6017L14.9804 18.8946L15.6875 18.1875ZM15.6875 17.125H16.6875V16.7108L16.3946 16.4179L15.6875 17.125ZM15.3125 16.75L16.0196 16.0429L15.3605 15.3838L14.6568 15.995L15.3125 16.75ZM3.5 16.3125L2.79284 17.0197L2.80168 17.0283L3.5 16.3125ZM3.5 4.0625L2.79289 3.35539L3.5 4.0625ZM15.8125 4.0625L15.0967 4.76088L15.1054 4.76961L15.8125 4.0625ZM17.6875 13.1875L18.6209 13.5465L18.6252 13.5348L17.6875 13.1875ZM16.25 15.8125L15.4739 15.1819L14.9052 15.8819L15.5429 16.5196L16.25 15.8125ZM16.625 16.1875L15.9179 16.8946L16.2108 17.1875H16.625V16.1875ZM5.4375 14.4375L4.73039 15.1446C6.08673 16.5009 7.75864 17.1875 9.6875 17.1875V16.1875V15.1875C8.28302 15.1875 7.12161 14.7074 6.14461 13.7304L5.4375 14.4375ZM9.6875 16.1875V17.1875C11.6164 17.1875 13.2883 16.5009 14.6446 15.1446L13.9375 14.4375L13.2304 13.7304C12.2534 14.7074 11.092 15.1875 9.6875 15.1875V16.1875ZM13.9375 14.4375L14.6446 15.1446C16.0009 13.7883 16.6875 12.1164 16.6875 10.1875H15.6875H14.6875C14.6875 11.592 14.2074 12.7534 13.2304 13.7304L13.9375 14.4375ZM15.6875 10.1875H16.6875C16.6875 8.25864 16.0009 6.58673 14.6446 5.23039L13.9375 5.9375L13.2304 6.64461C14.2074 7.62161 14.6875 8.78302 14.6875 10.1875H15.6875ZM13.9375 5.9375L14.6446 5.23039C13.2883 3.87406 11.6164 3.1875 9.6875 3.1875V4.1875V5.1875C11.092 5.1875 12.2534 5.66761 13.2304 6.64461L13.9375 5.9375ZM9.6875 4.1875V3.1875C7.75864 3.1875 6.08673 3.87406 4.73039 5.23039L5.4375 5.9375L6.14461 6.64461C7.12161 5.66761 8.28302 5.1875 9.6875 5.1875V4.1875ZM5.4375 5.9375L4.73039 5.23039C3.37406 6.58673 2.6875 8.25864 2.6875 10.1875H3.6875H4.6875C4.6875 8.78302 5.16761 7.62161 6.14461 6.64461L5.4375 5.9375ZM3.6875 10.1875H2.6875C2.6875 12.1164 3.37406 13.7883 4.73039 15.1446L5.4375 14.4375L6.14461 13.7304C5.16761 12.7534 4.6875 11.592 4.6875 10.1875H3.6875ZM17.6875 16.1875L16.9804 16.8946L23.6054 23.5196L24.3125 22.8125L25.0196 22.1054L18.3946 15.4804L17.6875 16.1875ZM24.3125 22.8125L23.6054 22.1054L21.6054 24.1054L22.3125 24.8125L23.0196 25.5196L25.0196 23.5196L24.3125 22.8125ZM22.3125 24.8125L23.0196 24.1054L16.3946 17.4804L15.6875 18.1875L14.9804 18.8946L21.6054 25.5196L22.3125 24.8125ZM15.6875 18.1875H16.6875V17.125H15.6875H14.6875V18.1875H15.6875ZM15.6875 17.125L16.3946 16.4179L16.0196 16.0429L15.3125 16.75L14.6054 17.4571L14.9804 17.8321L15.6875 17.125ZM15.3125 16.75L14.6568 15.995C13.2619 17.2063 11.622 17.8125 9.6875 17.8125V18.8125V19.8125C12.0863 19.8125 14.1964 19.0437 15.9682 17.505L15.3125 16.75ZM9.6875 18.8125V17.8125C7.5281 17.8125 5.71727 17.0786 4.19832 15.5967L3.5 16.3125L2.80168 17.0283C4.6994 18.8797 7.01356 19.8125 9.6875 19.8125V18.8125ZM3.5 16.3125L4.20711 15.6054C2.73322 14.1315 2 12.3465 2 10.1875H1H0C0 12.8619 0.933442 15.1602 2.79289 17.0196L3.5 16.3125ZM1 10.1875H2C2 8.02853 2.73322 6.24349 4.20711 4.76961L3.5 4.0625L2.79289 3.35539C0.933442 5.21484 0 7.51313 0 10.1875H1ZM3.5 4.0625L4.20711 4.76961C5.72784 3.24887 7.53596 2.5 9.6875 2.5V1.5V0.5C7.00571 0.5 4.68883 1.45946 2.79289 3.35539L3.5 4.0625ZM9.6875 1.5V2.5C11.8385 2.5 13.6209 3.24811 15.0967 4.76082L15.8125 4.0625L16.5283 3.36418C14.6708 1.46022 12.3698 0.5 9.6875 0.5V1.5ZM15.8125 4.0625L15.1054 4.76961C16.5793 6.24349 17.3125 8.02853 17.3125 10.1875H18.3125H19.3125C19.3125 7.51313 18.3791 5.21484 16.5196 3.35539L15.8125 4.0625ZM18.3125 10.1875H17.3125C17.3125 10.9089 17.1395 11.7879 16.7498 12.8402L17.6875 13.1875L18.6252 13.5348C19.0689 12.3371 19.3125 11.2161 19.3125 10.1875H18.3125ZM17.6875 13.1875L16.7542 12.8285C16.3629 13.8457 15.9305 14.6199 15.4739 15.1819L16.25 15.8125L17.0261 16.4431C17.6529 15.6717 18.1788 14.6959 18.6208 13.5465L17.6875 13.1875ZM16.25 15.8125L15.5429 16.5196L15.9179 16.8946L16.625 16.1875L17.3321 15.4804L16.9571 15.1054L16.25 15.8125ZM16.625 16.1875V17.1875H17.6875V16.1875V15.1875H16.625V16.1875Z" fill="black" mask="url(#path-1-outside-1_201_4970)"/>
</svg>
